# xmcd
#
# Track frame offsets: 
#        150
#        13420
#        30195
#        46022
#        65050
#        78806
#        121275
#        148104
#
# Disc length: 2063 seconds
#
# Revision: 0
# Processed by: cddbd v1.5.2PL0 Copyright (c) Steve Scherf et al.
# Submitted via: ExactAudioCopy v1.0b4
#
DISCID=61080d08
DTITLE=Jimi Hendrix - Loose Ends (LP)
DYEAR=1973
DGENRE=Blues
TTITLE0=Come Down Hard On Me Baby
TTITLE1=Blue Suede Shoes
TTITLE2=Jam 292
TTITLE3=The Stars That Play With Laughing Sams Dice
TTITLE4=Drifters Escape
TTITLE5=Burning Desire
TTITLE6=Born A Hootchie Kootchie Man
TTITLE7=Electric Lady Land
EXTD=
EXTT0=
EXTT1=
EXTT2=
EXTT3=
EXTT4=
EXTT5=
EXTT6=
EXTT7=
PLAYORDER=
